<?xml version="1.0" encoding="UTF-8" standalone="no"?>
<svg
   xmlns:dc="http://purl.org/dc/elements/1.1/"
   xmlns:cc="http://creativecommons.org/ns#"
   xmlns:rdf="http://www.w3.org/1999/02/22-rdf-syntax-ns#"
   xmlns:svg="http://www.w3.org/2000/svg"
   xmlns="http://www.w3.org/2000/svg"
   xmlns:sodipodi="http://sodipodi.sourceforge.net/DTD/sodipodi-0.dtd"
   xmlns:inkscape="http://www.inkscape.org/namespaces/inkscape"
   width="253.15254"
   height="237.05084"
   viewBox="0 0 253.15254 237.05084"
   id="svg3131"
   version="1.1"
   inkscape:version="0.48.4 r9939"
   sodipodi:docname="topologia-anel.svg">
  <metadata
     id="metadata3141">
    <rdf:RDF>
      <cc:Work
         rdf:about="">
        <dc:format>image/svg+xml</dc:format>
        <dc:type
           rdf:resource="http://purl.org/dc/dcmitype/StillImage" />
        <dc:title></dc:title>
      </cc:Work>
    </rdf:RDF>
  </metadata>
  <defs
     id="defs3139" />
  <sodipodi:namedview
     pagecolor="#ffffff"
     bordercolor="#666666"
     borderopacity="1"
     objecttolerance="10"
     gridtolerance="10"
     guidetolerance="10"
     inkscape:pageopacity="0"
     inkscape:pageshadow="2"
     inkscape:window-width="1301"
     inkscape:window-height="744"
     id="namedview3137"
     showgrid="false"
     inkscape:zoom="1.7383042"
     inkscape:cx="56.129756"
     inkscape:cy="118.67707"
     inkscape:window-x="339"
     inkscape:window-y="1104"
     inkscape:window-maximized="1"
     inkscape:current-layer="svg3131"
     fit-margin-top="5"
     fit-margin-left="5"
     fit-margin-bottom="5"
     fit-margin-right="5" />
  <g
     inkscape:groupmode="layer"
     id="layer2"
     inkscape:label="computadores"
     style="display:inline"
     transform="translate(103.30508,94.016949)">
    <path
       style="fill:#000000"
       d="m 22.425157,34.777416 c -2.542838,-0.231516 -4.818367,-1.315101 -6.566943,-3.12712 -1.514312,-1.56925 -2.446697,-3.468587 -2.786271,-5.675828 -0.12343,-0.802302 -0.12343,-2.138672 0,-2.940974 0.35828,-2.328824 1.390736,-4.338491 3.052933,-5.942491 1.56925,-1.514309 3.468588,-2.446697 5.675826,-2.786271 0.452112,-0.06955 0.743883,-0.08677 1.47049,-0.08677 0.726607,0 1.018374,0.01722 1.470486,0.08677 2.207238,0.339574 4.106579,1.271962 5.675829,2.786271 1.662194,1.604 2.694654,3.613667 3.05293,5.942491 0.123429,0.802302 0.123429,2.138672 0,2.940974 -0.339571,2.207241 -1.271959,4.106578 -2.786268,5.675828 -1.906594,1.975765 -4.417194,3.076659 -7.171253,3.144579 -0.387765,0.0096 -0.877257,0.0018 -1.087759,-0.01747 z m 1.237802,-2.614227 c 0.599079,-0.520379 1.485134,-1.476708 1.939175,-2.09297 0.296231,-0.402073 0.320658,-0.542129 0.123494,-0.708033 -0.121625,-0.102341 -0.135617,-0.104299 -0.745316,-0.104299 -0.34175,0 -0.621361,-0.01469 -0.621361,-0.03266 0,-0.169046 -0.247831,-1.958124 -0.279426,-2.017157 -0.02283,-0.04266 -0.126638,-0.118769 -0.230683,-0.169137 -0.382527,-0.185179 -1.072734,-0.137805 -1.353928,0.09293 -0.106382,0.08729 -0.114222,0.118506 -0.169728,0.675688 -0.03202,0.321293 -0.07942,0.779058 -0.105353,1.017256 l -0.04716,0.433089 -0.615984,0 c -0.603909,0 -0.618413,0.0021 -0.739935,0.104298 -0.240063,0.201998 -0.17587,0.355182 0.496542,1.184897 0.304013,0.375135 1.200759,1.301066 1.566127,1.617103 0.359727,0.311156 0.424266,0.311074 0.783536,-0.0011 z M 18.590361,26.78194 c 0.547828,-0.412671 1.058938,-0.875253 1.689482,-1.529055 0.533317,-0.552992 0.604757,-0.661585 0.55794,-0.848115 -0.03048,-0.121403 -1.057608,-1.185529 -1.589639,-1.646882 -0.213632,-0.185246 -0.539556,-0.448299 -0.724277,-0.584557 -0.402037,-0.296556 -0.542057,-0.321036 -0.70803,-0.123787 -0.102344,0.121625 -0.104298,0.135618 -0.104298,0.745316 0,0.34175 -0.01469,0.621362 -0.03266,0.621362 -0.169049,0 -1.958124,0.247831 -2.017161,0.279425 -0.04266,0.02283 -0.11877,0.126639 -0.169138,0.230684 -0.185175,0.382527 -0.137805,1.072734 0.09293,1.353924 0.08729,0.106386 0.118502,0.114226 0.675688,0.169732 0.32129,0.03202 0.779055,0.07942 1.017253,0.105353 l 0.433092,0.04716 0,0.615983 c 0,0.603913 0.0021,0.618414 0.104298,0.739939 0.173995,0.206782 0.305525,0.176813 0.774524,-0.176478 z m 10.122671,0.196584 c 0.09354,-0.09946 0.09821,-0.130748 0.110444,-0.740249 l 0.01279,-0.636401 0.430383,-0.04684 c 0.236715,-0.02576 0.693262,-0.07303 1.014555,-0.105042 0.550043,-0.05479 0.589202,-0.06442 0.670353,-0.164801 0.286465,-0.354324 0.282981,-1.206575 -0.0062,-1.516449 -0.05686,-0.06093 -0.107189,-0.110909 -0.111835,-0.111055 -0.0046,-1.61e-4 -0.442443,-0.05453 -0.972891,-0.120864 -0.530447,-0.06633 -0.9779,-0.120596 -0.994337,-0.120596 -0.01644,0 -0.03566,-0.288659 -0.04274,-0.641468 -0.0123,-0.61483 -0.01691,-0.645784 -0.110522,-0.745316 -0.161938,-0.172179 -0.306871,-0.142093 -0.694519,0.144183 -0.184721,0.136418 -0.499422,0.388237 -0.699336,0.559601 -0.503456,0.431556 -1.584101,1.550109 -1.61447,1.671102 -0.01376,0.05481 -0.01376,0.144501 0,0.199314 0.03037,0.120993 1.111014,1.239546 1.61447,1.671101 0.199914,0.171365 0.514615,0.423184 0.699336,0.559602 0.387648,0.286276 0.532581,0.316362 0.694519,0.144183 z m -4.866488,-5.00838 c 0.10531,-0.05098 0.210152,-0.127593 0.232981,-0.17025 0.03159,-0.05903 0.279426,-1.848111 0.279426,-2.01716 0,-0.01797 0.279611,-0.03266 0.621361,-0.03266 0.609699,0 0.623691,-0.0018 0.745316,-0.104299 0.197249,-0.165976 0.172769,-0.305996 -0.12379,-0.708034 -0.136258,-0.184721 -0.399307,-0.510645 -0.584557,-0.724273 -0.461353,-0.532031 -1.525475,-1.559174 -1.646879,-1.589643 -0.186529,-0.04682 -0.295123,0.02462 -0.848114,0.55794 -0.653806,0.630545 -1.116384,1.141658 -1.529055,1.689482 -0.353292,0.469 -0.38326,0.60053 -0.176478,0.774528 0.121522,0.102254 0.136025,0.104298 0.739935,0.104298 l 0.615984,0 0.04716,0.433089 c 0.02594,0.238198 0.07334,0.695963 0.105352,1.017256 0.05551,0.557207 0.06334,0.588387 0.169728,0.675635 0.27864,0.228511 0.97397,0.276913 1.351631,0.09409 z"
       id="path4355"
       inkscape:connector-curvature="0" />
  </g>
  <g
     inkscape:groupmode="layer"
     id="layer1"
     inkscape:label="topologia"
     transform="translate(103.30508,94.016949)" />
  <path
     d="m 142.57627,33 c 2.21,0 3.98,-1.79 3.98,-4 l 0.02,-20 c 0,-2.21 -1.79,-4 -4,-4 h -32 c -2.21,0 -4,1.79 -4,4 v 20 c 0,2.21 1.79,4 4,4 h -8 v 4 h 48 v -4 h -8 z m -32,-24 h 32 v 20 h -32 V 9 z"
     id="path3135"
     inkscape:connector-curvature="0" />
  <path
     d="m 48.924217,73.067797 c 2.21,0 3.98,-1.79 3.98,-4 l 0.02,-20 c 0,-2.21 -1.79,-4 -4,-4 h -32 c -2.21,0 -4,1.79 -4,4 v 20 c 0,2.21 1.79,4 4,4 H 8.92422 v 4 h 47.999997 v -4 h -8 z m -32,-24 h 32 v 20 h -32 v -20 z"
     id="path3135-4"
     inkscape:connector-curvature="0" />
  <path
     d="m 237.27118,73.067797 c 2.21,0 3.98,-1.79 3.98,-4 l 0.02,-20 c 0,-2.21 -1.79,-4 -4,-4 h -32 c -2.21,0 -4,1.79 -4,4 v 20 c 0,2.21 1.79,4 4,4 h -8 v 4 h 48 v -4 h -8 z m -32,-24 h 32 v 20 h -32 v -20 z"
     id="path3135-3"
     inkscape:connector-curvature="0" />
  <path
     d="m 44.999995,169.47458 c 2.21,0 3.98,-1.79 3.98,-4 l 0.02,-20 c 0,-2.21 -1.79,-4 -4,-4 h -32 c -2.21,0 -4,1.79 -4,4 v 20 c 0,2.21 1.79,4 4,4 H 5 v 4 h 47.999995 v -4 h -8 z m -32,-24 h 32 v 20 h -32 v -20 z"
     id="path3135-1"
     inkscape:connector-curvature="0" />
  <path
     d="m 240.15254,169.47458 c 2.21,0 3.98,-1.79001 3.98,-4 l 0.02,-20 c 0,-2.21001 -1.79,-4 -4,-4 h -32 c -2.21,0 -4,1.78999 -4,4 v 20 c 0,2.20999 1.79,4 4,4 h -8 v 4 h 48 v -4 h -8 z m -32,-24 h 32 v 20 h -32 v -20 z"
     id="path3135-5"
     inkscape:connector-curvature="0" />
  <path
     d="m 142.57627,228.05085 c 2.21,0 3.98,-1.79 3.98,-4 l 0.02,-20 c 0,-2.21 -1.79,-4 -4,-4 h -32 c -2.21,0 -4,1.79 -4,4 v 20 c 0,2.21 1.79,4 4,4 h -8 v 4 h 48 v -4 h -8 z m -32,-24 h 32 v 20 h -32 v -20 z"
     id="path3135-0"
     inkscape:connector-curvature="0" />
  <text
     xml:space="preserve"
     style="font-size:15.34554195px;font-style:normal;font-variant:normal;font-weight:normal;font-stretch:normal;text-align:center;line-height:125%;letter-spacing:0px;word-spacing:0px;text-anchor:middle;fill:#000000;fill-opacity:1;stroke:none;font-family:Arial;-inkscape-font-specification:Sans"
     x="55.161781"
     y="18.572168"
     id="text4103"
     sodipodi:linespacing="125%"><tspan
       sodipodi:role="line"
       id="tspan4105"
       x="55.161781"
       y="18.572168">Topologia</tspan><tspan
       sodipodi:role="line"
       x="55.161781"
       y="37.754093"
       id="tspan4107">Estrela</tspan></text>
  <path
     style="fill:none;stroke:#000000;stroke-width:3;stroke-linecap:butt;stroke-linejoin:miter;stroke-miterlimit:4;stroke-opacity:1;stroke-dasharray:none"
     d="m 53.662498,75.18145 67.578272,37.46461"
     id="path4357"
     inkscape:connector-curvature="0"
     sodipodi:nodetypes="cc" />
  <path
     style="fill:none;stroke:#000000;stroke-width:3;stroke-linecap:butt;stroke-linejoin:miter;stroke-miterlimit:4;stroke-opacity:1;stroke-dasharray:none"
     d="m 126.72826,33.080534 -0.30398,76.295556"
     id="path4357-5"
     inkscape:connector-curvature="0"
     sodipodi:nodetypes="cc" />
  <path
     style="fill:none;stroke:#000000;stroke-width:3;stroke-linecap:butt;stroke-linejoin:miter;stroke-miterlimit:4;stroke-opacity:1;stroke-dasharray:none"
     d="M 200.92237,75.506941 133.02378,112.68391"
     id="path4357-5-3"
     inkscape:connector-curvature="0"
     sodipodi:nodetypes="cc" />
  <path
     style="fill:none;stroke:#000000;stroke-width:3;stroke-linecap:butt;stroke-linejoin:miter;stroke-miterlimit:4;stroke-opacity:1;stroke-dasharray:none"
     d="M 205.66837,155.46993 132.30468,123.6141"
     id="path4357-5-3-9"
     inkscape:connector-curvature="0"
     sodipodi:nodetypes="cc" />
  <path
     style="fill:none;stroke:#000000;stroke-width:3;stroke-linecap:butt;stroke-linejoin:miter;stroke-miterlimit:4;stroke-opacity:1;stroke-dasharray:none"
     d="M 120.38411,123.25462 48.458603,152.6654"
     id="path4357-5-3-9-3"
     inkscape:connector-curvature="0"
     sodipodi:nodetypes="cc" />
  <path
     style="fill:none;stroke:#000000;stroke-width:3;stroke-linecap:butt;stroke-linejoin:miter;stroke-miterlimit:4;stroke-opacity:1;stroke-dasharray:none"
     d="m 126.72826,127.28154 -0.30398,76.29555"
     id="path4357-5-6"
     inkscape:connector-curvature="0"
     sodipodi:nodetypes="cc" />
</svg>
