<?xml version="1.0" encoding="UTF-8" standalone="no"?>
<!-- Created with Inkscape (http://www.inkscape.org/) -->
<svg xmlns:dc="http://purl.org/dc/elements/1.1/" xmlns:cc="http://creativecommons.org/ns#" xmlns:rdf="http://www.w3.org/1999/02/22-rdf-syntax-ns#" xmlns:svg="http://www.w3.org/2000/svg" xmlns="http://www.w3.org/2000/svg" xmlns:sodipodi="http://sodipodi.sourceforge.net/DTD/sodipodi-0.dtd" xmlns:inkscape="http://www.inkscape.org/namespaces/inkscape" width="123.75" height="53.75" id="svg6929" version="1.1" inkscape:version="0.48.3.1 r9886" sodipodi:docname="Nouveau document 43">
  <defs id="defs6931"/>
  <sodipodi:namedview id="base" pagecolor="#ffffff" bordercolor="#666666" borderopacity="1.0" inkscape:pageopacity="0.0" inkscape:pageshadow="2" inkscape:zoom="0.35" inkscape:cx="-11.6875" inkscape:cy="-98.830933" inkscape:document-units="px" inkscape:current-layer="layer1" showgrid="false" fit-margin-top="0" fit-margin-left="0" fit-margin-right="0" fit-margin-bottom="0" inkscape:window-width="486" inkscape:window-height="415" inkscape:window-x="49" inkscape:window-y="24" inkscape:window-maximized="0"/>
  <g inkscape:label="Calque 1" inkscape:groupmode="layer" id="layer1" transform="translate(-386.6875,-379.78125)">
    <path inkscape:connector-curvature="0" id="path216" d="m 388.57143,396.6479 15,-15 90,0 15,15 0,35 -120,0 z m 0,0" style="fill:#e1e1e1;fill-opacity:1;fill-rule:evenodd;stroke:#7d7d7d;stroke-width:3.75;stroke-linecap:butt;stroke-linejoin:miter;stroke-miterlimit:10;stroke-opacity:1"/>
    <path inkscape:connector-curvature="0" id="path218" d="m 394.82143,401.6479 107.5,0 c 0.68847,0 1.25,0.5615 1.25,1.25 l 0,22.5 c 0,0.69325 -0.56153,1.25 -1.25,1.25 l -107.5,0 c -0.68848,0 -1.25,-0.55675 -1.25,-1.25 l 0,-22.5 c 0,-0.6885 0.56152,-1.25 1.25,-1.25" style="fill:#bdbdbd;fill-opacity:1;fill-rule:evenodd;stroke:#9c9c9c;stroke-width:1.25;stroke-linecap:butt;stroke-linejoin:round;stroke-miterlimit:10;stroke-opacity:1"/>
    <path inkscape:connector-curvature="0" id="path220" d="m 474.82143,411.6479 c 0,1.67 -2.5,1.67 -2.5,0 0,-1.665 2.5,-1.665 2.5,0" style="fill:#c51900;fill-opacity:1;fill-rule:evenodd;stroke:#7d7d7d;stroke-width:1.25;stroke-linecap:butt;stroke-linejoin:round;stroke-miterlimit:10;stroke-opacity:1"/>
    <path inkscape:connector-curvature="0" id="path222" d="m 486.07143,404.1479 2.5,0 0,20 -2.5,0 z m 0,0" style="fill:#9c9c9c;fill-opacity:1;fill-rule:evenodd;stroke:#7d7d7d;stroke-width:1.25;stroke-linecap:butt;stroke-linejoin:miter;stroke-miterlimit:10;stroke-opacity:1"/>
    <path inkscape:connector-curvature="0" id="path224" d="m 397.32143,404.1479 7.8174,0 c 0.68847,0 1.25,0.5615 1.25,1.25 l 0,5 c 0,0.69325 -0.56153,1.25 -1.25,1.25 l -7.8174,0 c -0.68848,0 -1.25,-0.55675 -1.25,-1.25 l 0,-5 c 0,-0.6885 0.56152,-1.25 1.25,-1.25" style="fill:#515151;fill-opacity:1;fill-rule:evenodd;stroke:#9c9c9c;stroke-width:1.25;stroke-linecap:butt;stroke-linejoin:round;stroke-miterlimit:10;stroke-opacity:1"/>
    <path inkscape:connector-curvature="0" id="path226" d="m 397.32143,416.6479 7.8174,0 c 0.68847,0 1.25,0.5615 1.25,1.25 l 0,5 c 0,0.69325 -0.56153,1.25 -1.25,1.25 l -7.8174,0 c -0.68848,0 -1.25,-0.55675 -1.25,-1.25 l 0,-5 c 0,-0.6885 0.56152,-1.25 1.25,-1.25" style="fill:#515151;fill-opacity:1;fill-rule:evenodd;stroke:#9c9c9c;stroke-width:1.25;stroke-linecap:butt;stroke-linejoin:round;stroke-miterlimit:10;stroke-opacity:1"/>
    <path inkscape:connector-curvature="0" id="path228" d="m 412.32143,404.1479 7.8174,0 c 0.68847,0 1.25,0.5615 1.25,1.25 l 0,5 c 0,0.69325 -0.56153,1.25 -1.25,1.25 l -7.8174,0 c -0.68848,0 -1.25,-0.55675 -1.25,-1.25 l 0,-5 c 0,-0.6885 0.56152,-1.25 1.25,-1.25" style="fill:#515151;fill-opacity:1;fill-rule:evenodd;stroke:#9c9c9c;stroke-width:1.25;stroke-linecap:butt;stroke-linejoin:round;stroke-miterlimit:10;stroke-opacity:1"/>
    <path inkscape:connector-curvature="0" id="path230" d="m 427.32143,404.1479 7.8174,0 c 0.68847,0 1.25,0.5615 1.25,1.25 l 0,5 c 0,0.69325 -0.56153,1.25 -1.25,1.25 l -7.8174,0 c -0.68848,0 -1.25,-0.55675 -1.25,-1.25 l 0,-5 c 0,-0.6885 0.56152,-1.25 1.25,-1.25" style="fill:#515151;fill-opacity:1;fill-rule:evenodd;stroke:#9c9c9c;stroke-width:1.25;stroke-linecap:butt;stroke-linejoin:round;stroke-miterlimit:10;stroke-opacity:1"/>
    <path inkscape:connector-curvature="0" id="path232" d="m 442.32143,404.1479 7.8174,0 c 0.68847,0 1.25,0.5615 1.25,1.25 l 0,5 c 0,0.69325 -0.56153,1.25 -1.25,1.25 l -7.8174,0 c -0.68848,0 -1.25,-0.55675 -1.25,-1.25 l 0,-5 c 0,-0.6885 0.56152,-1.25 1.25,-1.25" style="fill:#515151;fill-opacity:1;fill-rule:evenodd;stroke:#9c9c9c;stroke-width:1.25;stroke-linecap:butt;stroke-linejoin:round;stroke-miterlimit:10;stroke-opacity:1"/>
    <path inkscape:connector-curvature="0" id="path234" d="m 457.32143,404.1479 7.8174,0 c 0.68847,0 1.25,0.5615 1.25,1.25 l 0,5 c 0,0.69325 -0.56153,1.25 -1.25,1.25 l -7.8174,0 c -0.68848,0 -1.25,-0.55675 -1.25,-1.25 l 0,-5 c 0,-0.6885 0.56152,-1.25 1.25,-1.25" style="fill:#515151;fill-opacity:1;fill-rule:evenodd;stroke:#9c9c9c;stroke-width:1.25;stroke-linecap:butt;stroke-linejoin:round;stroke-miterlimit:10;stroke-opacity:1"/>
    <path inkscape:connector-curvature="0" id="path236" d="m 412.32143,416.6479 7.8174,0 c 0.68847,0 1.25,0.5615 1.25,1.25 l 0,5 c 0,0.69325 -0.56153,1.25 -1.25,1.25 l -7.8174,0 c -0.68848,0 -1.25,-0.55675 -1.25,-1.25 l 0,-5 c 0,-0.6885 0.56152,-1.25 1.25,-1.25" style="fill:#515151;fill-opacity:1;fill-rule:evenodd;stroke:#9c9c9c;stroke-width:1.25;stroke-linecap:butt;stroke-linejoin:round;stroke-miterlimit:10;stroke-opacity:1"/>
    <path inkscape:connector-curvature="0" id="path238" d="m 427.32143,416.6479 7.8174,0 c 0.68847,0 1.25,0.5615 1.25,1.25 l 0,5 c 0,0.69325 -0.56153,1.25 -1.25,1.25 l -7.8174,0 c -0.68848,0 -1.25,-0.55675 -1.25,-1.25 l 0,-5 c 0,-0.6885 0.56152,-1.25 1.25,-1.25" style="fill:#515151;fill-opacity:1;fill-rule:evenodd;stroke:#9c9c9c;stroke-width:1.25;stroke-linecap:butt;stroke-linejoin:round;stroke-miterlimit:10;stroke-opacity:1"/>
    <path inkscape:connector-curvature="0" id="path240" d="m 442.32143,416.6479 7.8174,0 c 0.68847,0 1.25,0.5615 1.25,1.25 l 0,5 c 0,0.69325 -0.56153,1.25 -1.25,1.25 l -7.8174,0 c -0.68848,0 -1.25,-0.55675 -1.25,-1.25 l 0,-5 c 0,-0.6885 0.56152,-1.25 1.25,-1.25" style="fill:#515151;fill-opacity:1;fill-rule:evenodd;stroke:#9c9c9c;stroke-width:1.25;stroke-linecap:butt;stroke-linejoin:round;stroke-miterlimit:10;stroke-opacity:1"/>
    <path inkscape:connector-curvature="0" id="path242" d="m 457.32143,416.6479 7.8174,0 c 0.68847,0 1.25,0.5615 1.25,1.25 l 0,5 c 0,0.69325 -0.56153,1.25 -1.25,1.25 l -7.8174,0 c -0.68848,0 -1.25,-0.55675 -1.25,-1.25 l 0,-5 c 0,-0.6885 0.56152,-1.25 1.25,-1.25" style="fill:#515151;fill-opacity:1;fill-rule:evenodd;stroke:#9c9c9c;stroke-width:1.25;stroke-linecap:butt;stroke-linejoin:round;stroke-miterlimit:10;stroke-opacity:1"/>
    <path inkscape:connector-curvature="0" id="path244" d="m 398.57143,396.6479 10,-10 82.5,0 10,10 z m 0,0" style="fill:#bdbdbd;fill-opacity:1;fill-rule:evenodd;stroke:#9c9c9c;stroke-width:1.25;stroke-linecap:butt;stroke-linejoin:miter;stroke-miterlimit:10;stroke-opacity:1"/>
    <path inkscape:connector-curvature="0" id="path246" d="m 474.82143,406.6479 c 0,1.67 -2.5,1.67 -2.5,0 0,-1.665 2.5,-1.665 2.5,0" style="fill:#00c700;fill-opacity:1;fill-rule:evenodd;stroke:#7d7d7d;stroke-width:1.25;stroke-linecap:butt;stroke-linejoin:miter;stroke-miterlimit:10;stroke-opacity:1"/>
    <path inkscape:connector-curvature="0" id="path248" d="m 491.07143,404.1479 2.5,0 0,20 -2.5,0 z m 0,0" style="fill:#9c9c9c;fill-opacity:1;fill-rule:evenodd;stroke:#7d7d7d;stroke-width:1.25;stroke-linecap:butt;stroke-linejoin:miter;stroke-miterlimit:10;stroke-opacity:1"/>
    <path inkscape:connector-curvature="0" id="path250" d="m 496.07143,404.1479 2.5,0 0,20 -2.5,0 z m 0,0" style="fill:#9c9c9c;fill-opacity:1;fill-rule:evenodd;stroke:#7d7d7d;stroke-width:1.25;stroke-linecap:butt;stroke-linejoin:miter;stroke-miterlimit:10;stroke-opacity:1"/>
    <path inkscape:connector-curvature="0" id="path252" d="m 474.82143,416.6479 c 0,1.67 -2.5,1.67 -2.5,0 0,-1.665 2.5,-1.665 2.5,0" style="fill:#00c700;fill-opacity:1;fill-rule:evenodd;stroke:#7d7d7d;stroke-width:1.25;stroke-linecap:butt;stroke-linejoin:miter;stroke-miterlimit:10;stroke-opacity:1"/>
    <path inkscape:connector-curvature="0" id="path254" d="m 474.82143,421.6479 c 0,1.67 -2.5,1.67 -2.5,0 0,-1.665 2.5,-1.665 2.5,0" style="fill:#00c700;fill-opacity:1;fill-rule:evenodd;stroke:#7d7d7d;stroke-width:1.25;stroke-linecap:butt;stroke-linejoin:miter;stroke-miterlimit:10;stroke-opacity:1"/>
  </g>
  <metadata>
    <rdf:RDF>
      <cc:Work>
        <dc:format>image/svg+xml</dc:format>
        <dc:type rdf:resource="http://purl.org/dc/dcmitype/StillImage"/>
        <cc:license rdf:resource="http://creativecommons.org/licenses/publicdomain/"/>
        <dc:publisher>
          <cc:Agent rdf:about="http://openclipart.org/">
            <dc:title>Open Clip Art Library</dc:title>
          </cc:Agent>
        </dc:publisher>
        <dc:title>Switch-Hub</dc:title>
        <dc:date>2012-08-02T14:26:49</dc:date>
        <dc:description/>
        <dc:source>http://openclipart.org/detail/171420/switch-hub-by-cyberscooty-171420</dc:source>
        <dc:creator>
          <cc:Agent>
            <dc:title>cyberscooty</dc:title>
          </cc:Agent>
        </dc:creator>
        <dc:subject>
          <rdf:Bag>
            <rdf:li>clip art</rdf:li>
            <rdf:li>clipart</rdf:li>
            <rdf:li>computer</rdf:li>
            <rdf:li>hub</rdf:li>
            <rdf:li>informatique</rdf:li>
            <rdf:li>it</rdf:li>
            <rdf:li>network</rdf:li>
            <rdf:li>ordinateur</rdf:li>
            <rdf:li>réseau</rdf:li>
            <rdf:li>server</rdf:li>
            <rdf:li>serveur</rdf:li>
            <rdf:li>switch</rdf:li>
          </rdf:Bag>
        </dc:subject>
      </cc:Work>
      <cc:License rdf:about="http://creativecommons.org/licenses/publicdomain/">
        <cc:permits rdf:resource="http://creativecommons.org/ns#Reproduction"/>
        <cc:permits rdf:resource="http://creativecommons.org/ns#Distribution"/>
        <cc:permits rdf:resource="http://creativecommons.org/ns#DerivativeWorks"/>
      </cc:License>
    </rdf:RDF>
  </metadata>
</svg>